<?xml version="1.0" encoding="utf-8"?>
<!-- Generator: Adobe Illustrator 21.0.0, SVG Export Plug-In . SVG Version: 6.00 Build 0)  -->
<svg version="1.1" xmlns="http://www.w3.org/2000/svg" xmlns:xlink="http://www.w3.org/1999/xlink" x="0px" y="0px"
	 viewBox="0 0 256 256">
<style type="text/css">
	.st0{fill:url(#SVGID_1_);}
	.st1{fill:none;stroke:#FCFCFC;stroke-width:6;stroke-miterlimit:10;}
	.st2{fill:url(#SVGID_2_);}
	.st3{fill:url(#SVGID_3_);}
	.st4{fill:none;stroke:#FCFCFC;stroke-miterlimit:10;}
	.st5{fill:#FFFFFF;}
	.st6{fill:url(#SVGID_4_);}
	.st7{fill:none;stroke:#FCFCFC;stroke-width:8;stroke-miterlimit:10;}
	.st8{fill:url(#SVGID_5_);}
	.st9{fill:none;stroke:#FCFCFC;stroke-width:2;stroke-miterlimit:10;}
	.st10{fill:#F9F8F7;}
	.st11{fill:url(#SVGID_6_);}
	.st12{fill:none;stroke:#EABA96;stroke-width:2;stroke-miterlimit:10;}
	.st13{fill:url(#SVGID_7_);}
	.st14{fill:url(#SVGID_8_);}
	.st15{fill:url(#SVGID_9_);}
	.st16{fill:none;stroke:#FFFFFF;stroke-width:8;stroke-miterlimit:10;}
	.st17{fill:url(#SVGID_10_);}
	.st18{fill:url(#SVGID_11_);}
	.st19{opacity:0.4;}
	.st20{fill:url(#SVGID_12_);}
	.st21{fill:url(#SVGID_13_);}
</style>
<g>
	<linearGradient id="SVGID_1_" gradientUnits="userSpaceOnUse" x1="34.75" y1="-396.75" x2="34.75" y2="-652.75">
		<stop  offset="0" style="stop-color:#44D2C6"/>
		<stop  offset="0.1154" style="stop-color:#FDF59D"/>
		<stop  offset="0.2965" style="stop-color:#D169FC"/>
		<stop  offset="0.9972" style="stop-color:#2C3FF6"/>
	</linearGradient>
	<circle class="st0" cx="34.8" cy="-524.8" r="128"/>
</g>
<g>
	<line class="st1" x1="92.7" y1="-578.7" x2="67.1" y2="-553.1"/>
	<path class="st1" d="M67.1-553.1"/>
	<polygon class="st1" points="67.1,-462.8 92.7,-488.4 92.7,-578.7 2.4,-578.7 -23.2,-553.5 -23.2,-553.1 -23.2,-462.8 	"/>
	<line class="st1" x1="67.1" y1="-462.8" x2="67.1" y2="-553.1"/>
	<line class="st1" x1="-23.2" y1="-553.1" x2="67.1" y2="-553.1"/>
	<line class="st1" x1="3" y1="-578.7" x2="3" y2="-554.5"/>
</g>
<g>
	<linearGradient id="SVGID_2_" gradientUnits="userSpaceOnUse" x1="-362.25" y1="-394.75" x2="-362.25" y2="-650.75">
		<stop  offset="0" style="stop-color:#FDF59D"/>
		<stop  offset="0.2965" style="stop-color:#D169FC"/>
		<stop  offset="0.9972" style="stop-color:#2C3FF6"/>
	</linearGradient>
	<circle class="st2" cx="-362.2" cy="-522.8" r="128"/>
</g>
<g>
	<linearGradient id="SVGID_3_" gradientUnits="userSpaceOnUse" x1="391.875" y1="-386.875" x2="391.875" y2="-642.875">
		<stop  offset="0" style="stop-color:#FDF59D"/>
		<stop  offset="0.2951" style="stop-color:#E657FC"/>
		<stop  offset="0.9972" style="stop-color:#3C3CFF"/>
	</linearGradient>
	<circle class="st3" cx="391.9" cy="-514.9" r="128"/>
</g>
<g>
	<line class="st4" x1="-295.7" y1="-583.6" x2="-331.3" y2="-548"/>
	<path class="st4" d="M-331.3-548"/>
	<polygon class="st4" points="-331.3,-422.1 -295.7,-457.7 -295.7,-583.6 -421.6,-583.6 -457.2,-548.5 -457.2,-548 -457.2,-422.1 	
		"/>
	<line class="st4" x1="-331.3" y1="-422.1" x2="-331.3" y2="-548"/>
	<line class="st4" x1="-457.2" y1="-548" x2="-331.3" y2="-548"/>
	<line class="st4" x1="-420.7" y1="-582.6" x2="-420.7" y2="-548.6"/>
</g>
<circle class="st5" cx="-421" cy="-583" r="8"/>
<circle class="st5" cx="-457.2" cy="-548.9" r="8"/>
<circle class="st5" cx="-296.1" cy="-583" r="8"/>
<circle class="st5" cx="-331.6" cy="-548.9" r="8"/>
<circle class="st5" cx="-331.6" cy="-425.6" r="8"/>
<circle class="st5" cx="-457.2" cy="-425.6" r="8"/>
<circle class="st5" cx="-296.1" cy="-461.1" r="8"/>
<g>
	<line class="st1" x1="449.8" y1="-572.8" x2="424.3" y2="-547.3"/>
	<path class="st1" d="M424.3-547.3"/>
	<polygon class="st1" points="424.3,-456.9 449.8,-482.5 449.8,-572.8 359.5,-572.8 333.9,-547.6 333.9,-547.3 333.9,-456.9 	"/>
	<line class="st1" x1="424.3" y1="-456.9" x2="424.3" y2="-547.3"/>
	<line class="st1" x1="333.9" y1="-547.3" x2="424.3" y2="-547.3"/>
	<line class="st1" x1="360.1" y1="-572.8" x2="360.1" y2="-548.6"/>
</g>
<g>
	<linearGradient id="SVGID_4_" gradientUnits="userSpaceOnUse" x1="759.6602" y1="-389.443" x2="759.6602" y2="-645.4429">
		<stop  offset="0" style="stop-color:#C7E900"/>
		<stop  offset="0.9972" style="stop-color:#2A78F6"/>
	</linearGradient>
	<circle class="st6" cx="759.7" cy="-517.4" r="128"/>
</g>
<g>
	<line class="st7" x1="823.2" y1="-578.5" x2="795.2" y2="-551.5"/>
	<path class="st7" d="M795.2-551.5"/>
	<polygon class="st7" points="795.2,-456.4 823.2,-483.3 823.2,-578.5 724.2,-578.5 696.1,-551.9 696.1,-551.5 696.1,-456.4 	"/>
	<line class="st7" x1="795.2" y1="-456.4" x2="795.2" y2="-551.5"/>
	<line class="st7" x1="696.1" y1="-551.5" x2="795.2" y2="-551.5"/>
	<line class="st7" x1="724.9" y1="-578.5" x2="724.9" y2="-553"/>
</g>
<g>
	<path d="M1574.9-731h-163.7c-5,0-9.1-4.1-9.1-9.1v-163.7c0-5,4.1-9.1,9.1-9.1h163.7c5,0,9.1,4.1,9.1,9.1v163.7
		C1584-735.1,1579.9-731,1574.9-731z"/>
</g>
<g>
	<linearGradient id="SVGID_5_" gradientUnits="userSpaceOnUse" x1="1489.8719" y1="-768.6136" x2="1489.8719" y2="-875.4041">
		<stop  offset="0" style="stop-color:#C7E9A1"/>
		<stop  offset="0.381" style="stop-color:#2A57F6"/>
		<stop  offset="0.9986" style="stop-color:#FFAA75"/>
	</linearGradient>
	<circle class="st8" cx="1489.9" cy="-822" r="53.4"/>
</g>
<g>
	<g>
		<polygon class="st9" points="1490.1,-750.7 1555.2,-776.1 1555.2,-866.2 1490.1,-840.8 1425,-866.2 1425,-776.1 		"/>
	</g>
	<g>
		<path class="st9" d="M1424.3-867.1l65.6-26.2l65.6,26.2"/>
	</g>
	<line class="st9" x1="1490.1" y1="-750.7" x2="1490.1" y2="-841.4"/>
</g>
<g>
	<path class="st10" d="M1836.9-734h-163.7c-5,0-9.1-4.1-9.1-9.1v-163.7c0-5,4.1-9.1,9.1-9.1h163.7c5,0,9.1,4.1,9.1,9.1v163.7
		C1846-738.1,1841.9-734,1836.9-734z"/>
</g>
<g>
	<linearGradient id="SVGID_6_" gradientUnits="userSpaceOnUse" x1="1751.8719" y1="-771.6136" x2="1751.8719" y2="-878.4041">
		<stop  offset="0" style="stop-color:#C7E9A1"/>
		<stop  offset="0.381" style="stop-color:#2A57F6"/>
		<stop  offset="0.9986" style="stop-color:#FFAA75"/>
	</linearGradient>
	<circle class="st11" cx="1751.9" cy="-825" r="53.4"/>
</g>
<g>
	<g>
		<polygon class="st12" points="1752.1,-753.7 1817.2,-779.1 1817.2,-869.2 1752.1,-843.8 1687,-869.2 1687,-779.1 		"/>
	</g>
	<g>
		<path class="st12" d="M1686.3-870.1l65.6-26.2l65.6,26.2"/>
	</g>
	<line class="st12" x1="1752.1" y1="-753.7" x2="1752.1" y2="-844.4"/>
</g>
<rect x="-979" y="86" width="308" height="303"/>
<g>
	<linearGradient id="SVGID_7_" gradientUnits="userSpaceOnUse" x1="2072.1667" y1="-726.1822" x2="2072.1667" y2="-920.1822">
		<stop  offset="0" style="stop-color:#5F87FD"/>
		<stop  offset="1" style="stop-color:#A864F6"/>
	</linearGradient>
	<circle class="st13" cx="2072.2" cy="-823.2" r="97"/>
</g>
<g>
	<linearGradient id="SVGID_8_" gradientUnits="userSpaceOnUse" x1="2072" y1="-970" x2="2072" y2="-1164">
		<stop  offset="0" style="stop-color:#5F87FD"/>
		<stop  offset="1" style="stop-color:#A864F6"/>
	</linearGradient>
	<circle class="st14" cx="2072" cy="-1067" r="97"/>
</g>
<g>
	<linearGradient id="SVGID_9_" gradientUnits="userSpaceOnUse" x1="-708" y1="-525" x2="-708" y2="-719">
		<stop  offset="0" style="stop-color:#5F87FD"/>
		<stop  offset="1" style="stop-color:#A864F6"/>
	</linearGradient>
	<circle class="st15" cx="-708" cy="-622" r="97"/>
</g>
<g>
	<line class="st16" x1="2111" y1="-853.7" x2="2085.6" y2="-829.4"/>
	<path class="st16" d="M2085.6-829.4"/>
	<polygon class="st16" points="2085.6,-743.3 2111,-767.7 2111,-853.7 2021.4,-853.7 1996,-829.7 1996,-829.4 1996,-743.3 	"/>
	<line class="st16" x1="2085.6" y1="-743.3" x2="2085.6" y2="-829.4"/>
	<line class="st16" x1="1996" y1="-829.4" x2="2085.6" y2="-829.4"/>
	<line class="st16" x1="2022" y1="-853.7" x2="2022" y2="-826.6"/>
</g>
<g>
	<linearGradient id="SVGID_10_" gradientUnits="userSpaceOnUse" x1="1025" y1="476" x2="1025" y2="220">
		<stop  offset="0" style="stop-color:#5F87FD"/>
		<stop  offset="1" style="stop-color:#A864F6"/>
	</linearGradient>
	<circle class="st17" cx="1025" cy="348" r="128"/>
</g>
<g>
	<line class="st7" x1="-673.8" y1="-241.5" x2="-701.8" y2="-214.5"/>
	<path class="st7" d="M-701.8-214.5"/>
	<polygon class="st7" points="-701.8,-119.4 -673.8,-146.3 -673.8,-241.5 -772.8,-241.5 -800.9,-214.9 -800.9,-214.5 -800.9,-119.4 
			"/>
	<line class="st7" x1="-701.8" y1="-119.4" x2="-701.8" y2="-214.5"/>
	<line class="st7" x1="-800.9" y1="-214.5" x2="-701.8" y2="-214.5"/>
	<line class="st7" x1="-772.1" y1="-241.5" x2="-772.1" y2="-216"/>
</g>
<circle class="st7" cx="-634.5" cy="-565.5" r="27.5"/>
<circle class="st7" cx="-692" cy="-644" r="44"/>
<rect x="-734" y="-647" class="st7" width="86.9" height="250"/>
<g>
	<g>
		<linearGradient id="SVGID_11_" gradientUnits="userSpaceOnUse" x1="128" y1="-2.728484e-12" x2="128" y2="256">
			<stop  offset="0" style="stop-color:#15B3FF"/>
			<stop  offset="1" style="stop-color:#FF5F8D"/>
		</linearGradient>
		<circle class="st18" cx="128" cy="128" r="128"/>
	</g>
	<g class="st19">
		<g>
			<polygon class="st4" points="129.6,209 196.7,182.8 196.7,90 129.6,116.3 62.6,90 62.6,182.8 			"/>
		</g>
		<g>
			<path class="st4" d="M61.9,89.1l67.6-27l67.6,27"/>
		</g>
		<line class="st4" x1="129.6" y1="209" x2="129.6" y2="115.6"/>
	</g>
	<circle class="st5" cx="129.5" cy="114.7" r="7.3"/>
	<circle class="st5" cx="129.5" cy="207" r="7.3"/>
	<circle class="st5" cx="196.8" cy="88.9" r="7.3"/>
	<circle class="st5" cx="196.8" cy="179.3" r="7.3"/>
	<circle class="st5" cx="62.2" cy="179.3" r="7.3"/>
	<circle class="st5" cx="62.2" cy="88.9" r="7.3"/>
	<circle class="st5" cx="129.5" cy="59.2" r="7.3"/>
</g>
<g>
	<line class="st7" x1="1228.4" y1="-126.5" x2="1195.7" y2="-95.1"/>
	<path class="st7" d="M1195.7-95.1"/>
	<polygon class="st7" points="1195.7,15.7 1228.4,-15.7 1228.4,-126.5 1113,-126.5 1080.4,-95.6 1080.4,-95.1 1080.4,15.7 	"/>
	<line class="st7" x1="1195.7" y1="15.7" x2="1195.7" y2="-95.1"/>
	<line class="st7" x1="1080.4" y1="-95.1" x2="1195.7" y2="-95.1"/>
	<line class="st7" x1="1113.9" y1="-126.5" x2="1113.9" y2="-0.6"/>
</g>
<g>
	<linearGradient id="SVGID_12_" gradientUnits="userSpaceOnUse" x1="1154.3909" y1="-152.3996" x2="1154.3909" y2="41.6004">
		<stop  offset="0" style="stop-color:#15B3FF"/>
		<stop  offset="1" style="stop-color:#FF5F8D"/>
	</linearGradient>
	<circle class="st20" cx="1154.4" cy="-55.4" r="97"/>
</g>
<g class="st19">
	<g>
		<polygon class="st4" points="1155.6,6 1206.5,-13.9 1206.5,-84.2 1155.6,-64.3 1104.8,-84.2 1104.8,-13.9 		"/>
	</g>
	<g>
		<path class="st4" d="M1104.3-84.9l51.2-20.5l51.2,20.5"/>
	</g>
	<line class="st4" x1="1155.6" y1="6" x2="1155.6" y2="-64.8"/>
</g>
<circle class="st5" cx="1155.5" cy="-64.5" r="6.5"/>
<circle class="st5" cx="1155.5" cy="5.5" r="6.5"/>
<circle class="st5" cx="1205.5" cy="-85.5" r="6.5"/>
<circle class="st5" cx="1205.5" cy="-15.5" r="6.5"/>
<circle class="st5" cx="1104.5" cy="-15.5" r="6.5"/>
<circle class="st5" cx="1104.5" cy="-84.5" r="6.5"/>
<circle class="st5" cx="606.5" cy="-103.5" r="6.5"/>
<g>
	<linearGradient id="SVGID_13_" gradientUnits="userSpaceOnUse" x1="2176" y1="-704" x2="2176" y2="-510">
		<stop  offset="0" style="stop-color:#15B3FF"/>
		<stop  offset="1" style="stop-color:#FF5F8D"/>
	</linearGradient>
	<circle class="st21" cx="2176" cy="-607" r="97"/>
</g>
<g class="st19">
	<g>
		<polygon class="st4" points="2074.6,-1006 2125.5,-1025.9 2125.5,-1096.2 2074.6,-1076.3 2023.8,-1096.2 2023.8,-1025.9 		"/>
	</g>
	<g>
		<path class="st4" d="M2023.3-1096.9l51.2-20.5l51.2,20.5"/>
	</g>
	<line class="st4" x1="2074.6" y1="-1006" x2="2074.6" y2="-1076.8"/>
</g>
<circle class="st5" cx="2074.5" cy="-1076.5" r="6.5"/>
<circle class="st5" cx="2074.5" cy="-1006.5" r="6.5"/>
<circle class="st5" cx="2124.5" cy="-1097.5" r="6.5"/>
<circle class="st5" cx="2124.5" cy="-1027.5" r="6.5"/>
<circle class="st5" cx="2023.5" cy="-1027.5" r="6.5"/>
<circle class="st5" cx="2023.5" cy="-1096.5" r="6.5"/>
<circle class="st5" cx="2074.5" cy="-1118.5" r="6.5"/>
</svg>
